<?xml version="1.0" encoding="UTF-8" standalone="no"?>
<svg
   aria-hidden="true"
   role="presentation"
   id="logo"
   viewBox="0 0 90 11.2"
   width="80"
   height="28"
   version="1.1"
   sodipodi:docname="audi.svg"
   inkscape:version="1.4 (86a8ad7, 2024-10-11)"
   xmlns:inkscape="http://www.inkscape.org/namespaces/inkscape"
   xmlns:sodipodi="http://sodipodi.sourceforge.net/DTD/sodipodi-0.dtd"
   xmlns="http://www.w3.org/2000/svg"
   xmlns:svg="http://www.w3.org/2000/svg">
  <defs
     id="defs1" />
  <sodipodi:namedview
     id="namedview1"
     pagecolor="#505050"
     bordercolor="#eeeeee"
     borderopacity="1"
     inkscape:showpageshadow="0"
     inkscape:pageopacity="0"
     inkscape:pagecheckerboard="0"
     inkscape:deskcolor="#505050"
     inkscape:zoom="14.8625"
     inkscape:cx="40"
     inkscape:cy="23.851976"
     inkscape:window-width="2560"
     inkscape:window-height="1369"
     inkscape:window-x="-8"
     inkscape:window-y="-8"
     inkscape:window-maximized="1"
     inkscape:current-layer="logo" />
  <path
     d="M 15.401,-8.218671 C 7.84,-7.968671 1.876,-1.7436712 2.002,5.7673288 2.128,13.277329 8.297,19.301329 15.864,19.301329 c 7.566,0 13.735,-6.023 13.861,-13.5340002 0.126,-7.511 -5.837,-13.7359998 -13.4,-13.9859998 z m 19.41,0 c -7.563,0.25 -13.526,6.4749998 -13.4,13.9859998 0.126,7.5100002 6.295,13.5340002 13.862,13.5340002 7.566,0 13.735,-6.023 13.861,-13.5340002 0.126,-7.511 -5.837,-13.7359998 -13.4,-13.9859998 H 34.81 Z m 19.408,0 c -7.562,0.25 -13.525,6.4749998 -13.4,13.9859998 0.127,7.5100002 6.296,13.5340002 13.863,13.5340002 7.566,0 13.735,-6.023 13.861,-13.5340002 0.127,-7.511 -5.837,-13.7359998 -13.4,-13.9859998 z m 19.41,0 c -7.563,0.25 -13.526,6.4749998 -13.4,13.9859998 0.126,7.5100002 6.295,13.5340002 13.862,13.5340002 7.566,0 13.735,-6.023 13.861,-13.5340002 0.126,-7.511 -5.837,-13.7359998 -13.4,-13.9859998 h -0.924 z"
     stroke="#000000"
     stroke-width="3.584px"
     fill="none"
     fill-rule="evenodd"
     id="path1" />
</svg>
